HIERARCHY
ROOT Pelvis
{
	OFFSET 0.000000 0.000000 0.000000
	CHANNELS 6 Xposition Yposition Zposition Xrotation Yrotation Zrotation
	JOINT LeftUpLeg_virtual
	{
		OFFSET 0.000000 0.000000 0.000000
		CHANNELS 3 Xrotation Yrotation Zrotation
		JOINT LeftUpLeg
		{
			OFFSET 18.735201 -5.666702 -4.541200
			CHANNELS 3 Xrotation Yrotation Zrotation
			JOINT LeftLeg
			{
				OFFSET -0.021200 -31.938179 0.493100
				CHANNELS 3 Xrotation Yrotation Zrotation
				JOINT LeftFoot
				{
					OFFSET 0.021200 -31.938179 -4.336299
					CHANNELS 3 Xrotation Yrotation Zrotation
					JOINT LeftToeBase
					{
						OFFSET 0.943001 -26.722000 15.023500
						CHANNELS 3 Xrotation Yrotation Zrotation
						End Site
						{
							OFFSET 0 0 0
						}
					}
				}
			}
		}
	}
	JOINT RightUpLeg_virtual
	{
		OFFSET 0.000000 0.000000 0.000000
		CHANNELS 3 Xrotation Yrotation Zrotation
		JOINT RightUpLeg
		{
			OFFSET -18.735201 -5.666702 -4.541200
			CHANNELS 3 Xrotation Yrotation Zrotation
			JOINT RightLeg
			{
				OFFSET 0.018946 -31.938133 0.493100
				CHANNELS 3 Xrotation Yrotation Zrotation
				JOINT RightFoot
				{
					OFFSET -0.018946 -31.938126 -4.336299
					CHANNELS 3 Xrotation Yrotation Zrotation
					JOINT RightToeBase
					{
						OFFSET -0.943001 -26.722004 15.023500
						CHANNELS 3 Xrotation Yrotation Zrotation
						End Site
						{
							OFFSET 0 0 0
						}
					}
				}
			}
		}
	}
	JOINT Hips_virtual
	{
		OFFSET 0.000000 0.000000 0.000000
		CHANNELS 3 Xrotation Yrotation Zrotation
		JOINT Hips
		{
			OFFSET -0.000000 -0.000000 -0.000000
			CHANNELS 3 Xrotation Yrotation Zrotation
			JOINT Spine
			{
				OFFSET 0.000000 10.199997 -0.299500
				CHANNELS 3 Xrotation Yrotation Zrotation
				JOINT Spine1
				{
					OFFSET 0.000000 11.900002 -1.516600
					CHANNELS 3 Xrotation Yrotation Zrotation
					JOINT Spine2
					{
						OFFSET 0.000000 13.600006 -2.842500
						CHANNELS 3 Xrotation Yrotation Zrotation
						JOINT Neck_virtual
						{
							OFFSET 0.000000 0.000000 0.000000
							CHANNELS 3 Xrotation Yrotation Zrotation
							JOINT Neck
							{
								OFFSET 0.000000 9.624100 -2.890100
								CHANNELS 3 Xrotation Yrotation Zrotation
								JOINT Head
								{
									OFFSET 0.000000 14.068802 -1.351900
									CHANNELS 3 Xrotation Yrotation Zrotation
									End Site
									{
										OFFSET 0 0 0
									}
								}
							}
						}
						JOINT LeftShoulder_virtual
						{
							OFFSET 0.000000 0.000000 0.000000
							CHANNELS 3 Xrotation Yrotation Zrotation
							JOINT LeftShoulder
							{
								OFFSET 15.263000 10.923401 -0.547700
								CHANNELS 3 Xrotation Yrotation Zrotation
								JOINT LeftArm
								{
									OFFSET 25.438599 -2.830597 -13.032500
									CHANNELS 3 Xrotation Yrotation Zrotation
									JOINT LeftForeArm
									{
										OFFSET 29.960503 0.000000 0.000000
										CHANNELS 3 Xrotation Yrotation Zrotation
										JOINT LeftHand
										{
											OFFSET 27.849251 0.000000 0.000000
											CHANNELS 3 Xrotation Yrotation Zrotation
											End Site
											{
												OFFSET 0 0 0
											}
										}
									}
								}
							}
						}
						JOINT RightShoulder_virtual
						{
							OFFSET 0.000000 0.000000 0.000000
							CHANNELS 3 Xrotation Yrotation Zrotation
							JOINT RightShoulder
							{
								OFFSET -15.263000 10.923401 -0.547700
								CHANNELS 3 Xrotation Yrotation Zrotation
								JOINT RightArm
								{
									OFFSET -25.438599 -2.830597 -13.032500
									CHANNELS 3 Xrotation Yrotation Zrotation
									JOINT RightForeArm
									{
										OFFSET -29.960503 0.000000 0.000000
										CHANNELS 3 Xrotation Yrotation Zrotation
										JOINT RightHand
										{
											OFFSET -27.849251 0.000000 0.000000
											CHANNELS 3 Xrotation Yrotation Zrotation
											End Site
											{
												OFFSET 0 0 0
											}
										}
									}
								}
							}
						}
					}
				}
			}
		}
	}
}
MOTION
Frames: 9
Frame Time: 0.03333333
-0.363364 92.973167 1.552505 0.000000 0.000000 0.000000 6.548717 -17.947896 -0.371930 -33.133104 6.692338 14.771013 33.954981 3.455314 -1.367107 -13.559215 4.235165 -5.127329 0.000000 0.000000 0.000000 10.959004 -6.292379 1.816225 -15.501721 -7.893839 -13.591557 29.960451 3.394327 -0.421736 -18.488231 -0.619051 12.412706 0.000000 0.000000 0.000000 1.194041 -13.344770 1.024345 6.085468 -5.479775 1.644430 7.360896 -0.463382 -0.352640 1.729935 0.228199 0.226972 0.000000 0.000000 0.000000 1.385621 2.416012 -0.083099 -1.098030 2.044494 -0.570502 0.000000 0.000000 0.000000 1.236436 0.021069 1.917342 1.133174 -5.819265 0.310124 -39.013641 -14.750652 -37.590322 -9.678084 -58.500939 -2.675375 0.000000 0.000000 0.000000 4.271887 -0.200448 1.259149 3.778546 6.150007 9.254409 18.515477 -0.667377 47.114768 9.117910 33.704900 -0.924140 0.000000 0.000000 0.000000 
-0.358344 92.934265 1.586168 0.000000 0.000000 0.000000 6.523138 -17.843777 -0.386485 -33.166125 6.715116 14.775921 34.097158 3.322867 -1.344064 -13.437518 4.088604 -5.178682 0.000000 0.000000 0.000000 10.973410 -6.002718 1.838645 -15.448266 -7.822711 -13.514139 29.948426 3.243292 -0.389243 -18.509857 -0.790389 12.361998 0.000000 0.000000 0.000000 1.222814 -12.972744 0.990795 5.976235 -5.289646 1.584038 7.291730 -0.303980 -0.373716 1.676850 0.352886 0.256408 0.000000 0.000000 0.000000 1.412012 2.423349 -0.078204 -1.091884 2.035546 -0.569244 0.000000 0.000000 0.000000 1.242689 0.114867 1.907496 1.145742 -5.597813 0.310516 -39.158380 -14.871023 -37.586879 -9.722572 -58.780635 -2.758370 0.000000 0.000000 0.000000 4.296988 -0.097725 1.244884 3.820550 6.316478 9.216389 18.950119 -0.644939 46.887292 9.292968 33.617003 -1.019463 0.000000 0.000000 0.000000 
-0.347309 92.861069 1.653875 0.000000 0.000000 0.000000 6.474732 -17.640616 -0.415935 -33.223522 6.759422 14.781549 34.376390 3.060606 -1.297184 -13.199105 3.797302 -5.277912 0.000000 0.000000 0.000000 10.998599 -5.457990 1.883227 -15.348396 -7.689039 -13.364742 29.918660 2.938097 -0.321317 -18.552715 -1.136396 12.264838 0.000000 0.000000 0.000000 1.271786 -12.250316 0.921518 5.783059 -4.936536 1.466006 7.160537 0.012285 -0.408561 1.580685 0.590709 0.309743 0.000000 0.000000 0.000000 1.457138 2.435999 -0.068447 -1.081678 2.013093 -0.563758 0.000000 0.000000 0.000000 1.255001 0.300633 1.884971 1.162756 -5.167708 0.311408 -39.443267 -15.051601 -37.607865 -9.841792 -59.319872 -2.944770 0.000000 0.000000 0.000000 4.348403 0.099574 1.212337 3.894527 6.625798 9.132939 19.758796 -0.610786 46.450607 9.626761 33.428332 -1.196260 0.000000 0.000000 0.000000 
-0.328088 92.761627 1.757894 0.000000 0.000000 0.000000 6.408716 -17.351259 -0.460738 -33.290554 6.822422 14.780492 34.778575 2.674600 -1.225301 -12.856857 3.366196 -5.418654 0.000000 0.000000 0.000000 11.028385 -4.719247 1.948498 -15.214419 -7.507831 -13.154319 29.860344 2.475690 -0.214083 -18.617229 -1.659923 12.128095 0.000000 0.000000 0.000000 1.330401 -11.212236 0.815060 5.544888 -4.463517 1.295543 6.983046 0.478913 -0.445310 1.458504 0.921605 0.377974 0.000000 0.000000 0.000000 1.509470 2.449930 -0.053545 -1.070947 1.969228 -0.548831 0.000000 0.000000 0.000000 1.272948 0.574870 1.845286 1.171436 -4.552040 0.311486 -39.859980 -15.192986 -37.705192 -10.092202 -60.084197 -3.274889 0.000000 0.000000 0.000000 4.427761 0.377483 1.155524 3.982273 7.037285 8.995913 20.836826 -0.583936 45.838530 10.087874 33.115499 -1.428430 0.000000 0.000000 0.000000 
-0.297639 92.645393 1.903513 0.000000 0.000000 0.000000 6.332703 -16.998039 -0.521591 -33.349881 6.899986 14.763509 35.276896 2.175362 -1.127529 -12.434154 2.805038 -5.592506 0.000000 0.000000 0.000000 11.055869 -3.860450 2.030216 -15.060902 -7.296942 -12.899395 29.760244 1.857808 -0.065773 -18.705173 -2.357722 11.958804 0.000000 0.000000 0.000000 1.395208 -9.892966 0.674156 5.297725 -3.913625 1.080870 6.783786 1.084055 -0.471626 1.329840 1.322041 0.451785 0.000000 0.000000 0.000000 1.558727 2.459485 -0.032510 -1.063852 1.894699 -0.518218 0.000000 0.000000 0.000000 1.296215 0.932797 1.784189 1.159163 -3.779661 0.306651 -40.396249 -15.187638 -37.944433 -10.548112 -61.032016 -3.805233 0.000000 0.000000 0.000000 4.535918 0.719974 1.069768 4.060496 7.504499 8.806429 22.059554 -0.586399 45.095982 10.632281 32.650073 -1.680522 0.000000 0.000000 0.000000 
-0.252928 92.521080 2.097988 0.000000 0.000000 0.000000 6.256902 -16.610885 -0.600355 -33.384254 6.988079 14.720424 35.832685 1.578233 -1.003852 -11.963743 2.129269 -5.789783 0.000000 0.000000 0.000000 11.075572 -2.953999 2.119991 -14.901671 -7.073344 -12.621758 29.608484 1.094680 0.120596 -18.817663 -3.215958 11.761909 0.000000 0.000000 0.000000 1.475473 -8.313898 0.506746 5.061125 -3.317806 0.835061 6.592376 1.810773 -0.478284 1.212294 1.770197 0.524338 0.000000 0.000000 0.000000 1.599249 2.458480 -0.003594 -1.064599 1.781111 -0.465956 0.000000 0.000000 0.000000 1.325412 1.368908 1.699369 1.117014 -2.880027 0.290524 -41.034209 -14.946824 -38.387425 -11.289184 -62.116978 -4.599189 0.000000 0.000000 0.000000 4.672065 1.112701 0.954624 4.104683 7.987664 8.582610 23.303957 -0.635417 44.273064 11.207499 32.006506 -1.912086 0.000000 0.000000 0.000000 
-0.191683 92.395103 2.347696 0.000000 0.000000 0.000000 6.194155 -16.222355 -0.700932 -33.377850 7.084431 14.640750 36.402497 0.902661 -0.855426 -11.481635 1.359318 -6.000152 0.000000 0.000000 0.000000 11.084879 -2.059318 2.205099 -14.747803 -6.850257 -12.347073 29.405761 0.206081 0.336351 -18.951021 -4.209020 11.539377 0.000000 0.000000 0.000000 1.591650 -6.478467 0.323396 4.832685 -2.689670 0.577577 6.436092 2.639372 -0.460827 1.118791 2.249460 0.592471 0.000000 0.000000 0.000000 1.630515 2.442059 0.035350 -1.077083 1.622867 -0.387373 0.000000 0.000000 0.000000 1.362926 1.877613 1.591235 1.040690 -1.879254 0.257256 -41.747759 -14.413362 -39.070861 -12.384198 -63.283991 -5.711103 0.000000 0.000000 0.000000 4.833855 1.545516 0.814896 4.093239 8.463263 8.359872 24.463671 -0.735609 43.415811 11.759468 31.169538 -2.084433 0.000000 0.000000 0.000000 
-0.111934 92.271355 2.655620 0.000000 0.000000 0.000000 6.159091 -15.862843 -0.828888 -33.316771 7.189046 14.514726 36.949056 0.170500 -0.684433 -11.018324 0.518471 -6.213077 0.000000 0.000000 0.000000 11.084465 -1.216375 2.270190 -14.606966 -6.635796 -12.101868 29.168763 -0.780210 0.568498 -19.092749 -5.301761 11.290945 0.000000 0.000000 0.000000 1.767930 -4.378223 0.132485 4.589864 -2.026661 0.333233 6.331927 3.550458 -0.419094 1.056838 2.749108 0.656011 0.000000 0.000000 0.000000 1.655796 2.408592 0.086217 -1.104462 1.418428 -0.279628 0.000000 0.000000 0.000000 1.412929 2.453583 1.462380 0.929230 -0.798860 0.205116 -42.501788 -13.560133 -39.989238 -13.871709 -64.461618 -7.165562 0.000000 0.000000 0.000000 5.018661 2.012963 0.658995 4.011434 8.927336 8.182044 25.460128 -0.874691 42.553130 12.242146 30.138251 -2.169833 0.000000 0.000000 0.000000 
-0.010034 92.152451 3.020623 0.000000 0.000000 0.000000 6.166015 -15.557714 -0.989320 -33.189856 7.303028 14.335295 37.450668 -0.595994 -0.493590 -10.591582 -0.369714 -6.418229 0.000000 0.000000 0.000000 11.077360 -0.444157 2.300637 -14.484241 -6.432982 -11.909248 28.930434 -1.831006 0.802536 -19.220521 -6.453408 11.016206 0.000000 0.000000 0.000000 2.024004 -2.007506 -0.063884 4.296387 -1.315379 0.128187 6.282146 4.526808 -0.355385 1.029020 3.262622 0.715794 0.000000 0.000000 0.000000 1.680658 2.360596 0.150046 -1.148477 1.170627 -0.141842 0.000000 0.000000 0.000000 1.480487 3.091480 1.316174 0.783273 0.343338 0.138564 -43.254116 -12.381963 -41.089947 -15.738486 -65.559345 -8.934867 0.000000 0.000000 0.000000 5.225458 2.512850 0.495396 3.854080 9.391654 8.086579 26.252703 -1.025699 41.683664 12.627650 28.924874 -2.160616 0.000000 0.000000 0.000000 
